<?xml version="1.0" encoding="UTF-8"?>
<svg xmlns="http://www.w3.org/2000/svg" viewBox="0 0 48 48"><path fill="#00802f" d="M13 33.53a1 1 0 1 1-1-1 1 1 0 0 1 1 1zm3.51-1a1 1 0 1 0 1 1 1 1 0 0 0-.98-1zm4.51 0a1 1 0 1 0 1 1 1 1 0 0 0-1.02-1zm21.35-9.23l.34 4.51-5.32-1.64a16.35 16.35 0 0 1-1.65.45 11.13 11.13 0 0 1 .33 2.54c0 7.56-7.64 13.71-17 13.71a20.69 20.69 0 0 1-6.7-1.11L6 43.71l.41-5.37A12.28 12.28 0 0 1 2 29.16C2 22 8.88 16 17.74 15.5a9.82 9.82 0 0 1 1.18-4.4c1.72-3.1 6.13-6.81 12.94-6.81C39.66 4.29 46 9.4 46 15.68a10.25 10.25 0 0 1-3.63 7.62zm-7.3 5.86a10.12 10.12 0 0 0-.31-2.35 17.11 17.11 0 0 1-2.9.27c-7.49 0-13.55-4.61-14.08-10.58C9.46 17 3 22.49 3 29.16a11.37 11.37 0 0 0 4.25 8.59l.19.17-.33 4.4 5.24-1.62.16.06A19.63 19.63 0 0 0 19 41.87c8.87 0 16.07-5.7 16.07-12.71zM18.73 16c.19 5.58 6.08 10.13 13.13 10.13a16 16 0 0 0 3.19-.33 15.8 15.8 0 0 0 2.17-.58l.15-.06 4.23 1.3-.27-3.54.19-.17a9.28 9.28 0 0 0 3.48-7C45 10 39.11 5.29 31.86 5.29c-6 0-10.35 3.16-12.06 6.29A8.83 8.83 0 0 0 18.73 16" style="fill: #ffffff;"/></svg>
