<?xml version="1.0" encoding="UTF-8"?>
<svg xmlns="http://www.w3.org/2000/svg" viewBox="0 0 480 480"><path fill="#00802f" d="M459.3 70l-38.2-4.1 12.4-12.4-7.1-7.1L414 58.8l-4-38-54.5 56.3C322.8 53.9 283.1 39.9 240 39.9c-110.5 0-200 89.6-200 200s89.6 200 200 200 200-89.6 200-200c0-43.1-13.9-82.8-37.1-115.4L459.3 70zM437 77.7l-52.6 50.8-22.5-3.4L412 75l25 2.7zm-32-9.8L354.8 118l-3.4-22.4L402.2 43l2.8 24.9zM430 240c0 104.8-85.2 190-190 190S50 344.8 50 240 135.2 50 240 50c40.4 0 77.6 12.9 108.4 34.5l-7.6 7.9 5.3 34.5-17.9 17.9c-23.2-21.5-54.1-34.7-88.2-34.7-71.8 0-130 58.2-130 130s58.2 130 130 130 130-58.2 130-130c0-34.1-13.2-65-34.7-88.2l17.9-17.9 34.7 5.3 7.8-7.5C417.1 162.4 430 199.6 430 240zm-186.6 3.6l35.1-35.1c7.1 8.6 11.5 19.5 11.5 31.5 0 27.6-22.4 50-50 50s-50-22.4-50-50 22.4-50 50-50c12 0 22.9 4.4 31.5 11.5l-35.1 35.1 7 7zm35.3-49.4c-10.5-8.9-24-14.2-38.7-14.2-33.2 0-60 26.9-60 60 0 33.2 26.9 60 60 60 33.2 0 60-26.9 60-60 0-14.8-5.4-28.3-14.2-38.7l42.4-42.4c19.7 21.4 31.8 49.8 31.8 81.1 0 66.2-53.8 120-120 120s-120-53.8-120-120 53.8-120 120-120c31.3 0 59.7 12.1 81.1 31.8l-42.4 42.4z" style="fill: #ffffff;"/></svg>
